<?xml version="1.0" encoding="UTF-8"?>
<svg version="1.1" xmlns="http://www.w3.org/2000/svg" width="423" height="226">
<path d="M0 0 C1.56657723 -0.00514724 3.13314865 -0.01243456 4.69970703 -0.02168274 C8.92941231 -0.04010742 13.15848255 -0.02731333 17.38816094 -0.00759244 C21.83301458 0.00887841 26.27783064 -0.00003092 30.72270203 -0.00511169 C38.18812105 -0.00962469 45.6532889 0.00618425 53.11865234 0.03417969 C61.72109873 0.06619274 70.32309139 0.0662269 78.92556983 0.04896492 C87.23257912 0.03303687 95.5394238 0.03987586 103.84642601 0.05690193 C107.36645132 0.06373304 110.88634311 0.06278072 114.40636635 0.05535698 C118.56232586 0.04763048 122.71777652 0.06002503 126.8736496 0.08720589 C128.38882374 0.09402605 129.904046 0.09425715 131.41921806 0.08699036 C144.7438217 0.03050496 156.72616003 2.01763367 167.29174805 10.63110352 C168.32235352 11.45868164 168.32235352 11.45868164 169.3737793 12.30297852 C176.43495321 18.62158155 182.80694383 29.07973671 183.42482662 38.70395088 C183.42868154 39.44683294 183.43253645 40.189715 183.43650818 40.95510864 C183.44685593 42.24166603 183.44685593 42.24166603 183.45741272 43.55421448 C183.46133278 44.95376625 183.46133278 44.95376625 183.46533203 46.3815918 C183.47201904 47.37073074 183.47870605 48.35986969 183.4855957 49.37898254 C183.49964165 51.52715959 183.51153715 53.67535152 183.5215435 55.82355118 C183.53797572 59.22917296 183.56121698 62.63468536 183.58644104 66.04025269 C183.65713909 75.7234754 183.71719444 85.4067437 183.76855469 95.09008789 C183.80045612 101.01458006 183.84176391 106.93894768 183.88875008 112.86333847 C183.90470808 115.1158307 183.91705806 117.3683516 183.92565727 119.62088394 C183.93789548 122.78213289 183.96208223 125.94309256 183.98876953 129.10424805 C183.98935867 130.02513718 183.98994781 130.94602631 183.99055481 131.89482117 C184.07915759 139.86884155 184.38341081 148.70163587 189.6652832 155.11010742 C198.24619277 163.13458455 208.94423241 162.40809724 219.91674805 162.44360352 C221.6055819 162.46678486 223.29438717 162.49215766 224.9831543 162.51977539 C229.08612577 162.58215972 233.1883451 162.61486313 237.29174805 162.63110352 C237.25694336 161.5830957 237.22213867 160.53508789 237.1862793 159.45532227 C237.15813868 158.07643205 237.13083881 156.69752449 237.10424805 155.31860352 C237.06654297 154.28316406 237.06654297 154.28316406 237.02807617 153.22680664 C236.95414126 148.12529766 236.95414126 148.12529766 238.62768555 145.67553711 C241.16583197 144.08249275 243.32846383 144.23431466 246.29174805 144.25610352 C247.34362305 144.24836914 248.39549805 144.24063477 249.47924805 144.23266602 C252.29174805 144.63110352 252.29174805 144.63110352 253.94326782 145.70166016 C255.96648303 148.59653327 255.70968628 151.49454272 255.67993164 154.90063477 C255.68781708 156.00597061 255.68781708 156.00597061 255.69586182 157.13363647 C255.70907039 159.5705075 255.70032107 162.0067258 255.69018555 164.44360352 C255.69220604 166.13606899 255.69511728 167.82853361 255.69888306 169.52099609 C255.70330756 173.06852505 255.6968714 176.61582745 255.68286133 180.16333008 C255.66576925 184.71328261 255.67560977 189.26270428 255.69357872 193.81263733 C255.70441322 197.30761727 255.70097178 200.80247112 255.69319534 204.29745483 C255.69119241 205.97521019 255.69365589 207.65297695 255.700634 209.33071899 C255.70824316 211.67464577 255.69665269 214.01770984 255.67993164 216.36157227 C255.68600433 217.05672943 255.69207703 217.7518866 255.69833374 218.46810913 C255.66075668 221.3077268 255.59559361 223.19635276 253.94326782 225.56054688 C251.41928982 227.19665287 249.26336008 227.0279536 246.29174805 227.00610352 C245.23987305 227.01383789 244.18799805 227.02157227 243.10424805 227.02954102 C240.29174805 226.63110352 240.29174805 226.63110352 238.62768555 225.58666992 C236.56765858 222.57116992 236.97636345 219.45551138 237.10424805 215.94360352 C237.12455078 214.89076172 237.12455078 214.89076172 237.14526367 213.81665039 C237.18054623 212.08780523 237.23435221 210.35935586 237.29174805 208.63110352 C236.55640335 208.63998596 235.82105865 208.64886841 235.06343079 208.65802002 C228.07736741 208.73871873 221.09146993 208.79934528 214.10506916 208.8383522 C210.51466534 208.8590815 206.9246519 208.88712394 203.33447266 208.93286133 C199.85902857 208.97685161 196.38395598 209.00035028 192.90825462 209.01061249 C190.96038415 209.02142135 189.01265971 209.05255879 187.0650177 209.08428955 C174.81206944 209.0873232 163.9056581 206.46872924 154.29174805 198.63110352 C153.60467773 198.07938477 152.91760742 197.52766602 152.2097168 196.95922852 C145.14854289 190.64062548 138.77655226 180.18247032 138.15866947 170.55825615 C138.15481456 169.81537409 138.15095964 169.07249203 138.14698792 168.30709839 C138.13664017 167.020541 138.13664017 167.020541 138.12608337 165.70799255 C138.12216331 164.30844078 138.12216331 164.30844078 138.11816406 162.88061523 C138.11147705 161.89147629 138.10479004 160.90233734 138.09790039 159.88322449 C138.08385445 157.73504744 138.07195894 155.58685551 138.06195259 153.43865585 C138.04552037 150.03303408 138.02227912 146.62752167 137.99705505 143.22195435 C137.926357 133.53873163 137.86630165 123.85546333 137.81494141 114.17211914 C137.78303997 108.24762697 137.74173219 102.32325935 137.69474602 96.39886856 C137.67878802 94.14637634 137.66643803 91.89385543 137.65783882 89.64132309 C137.64560061 86.48007414 137.62141386 83.31911447 137.59472656 80.15795898 C137.59413742 79.23706985 137.59354828 78.31618073 137.59294128 77.36738586 C137.5040359 69.36613163 137.18146051 60.60570747 131.93838501 54.15300751 C124.64555882 47.41261388 116.30544925 46.92303729 106.83081055 47.05102539 C104.8170776 47.04726122 102.80334466 47.04349572 100.78961182 47.03968048 C98.6440725 47.04041759 96.49892643 47.05344885 94.35345459 47.07008362 C89.86350377 47.10419286 85.37407304 47.09981803 80.8840332 47.08996582 C71.35316217 47.07436403 61.822566 47.10051108 52.29174805 47.13110352 C41.99922097 47.16414092 31.70699051 47.18981162 21.41441154 47.16722727 C16.95940507 47.15887725 12.50534727 47.17448199 8.05047607 47.20902252 C5.94290227 47.2215676 3.83569108 47.22260576 1.72808838 47.21861267 C-0.82944153 47.213832 -3.38709592 47.22657837 -5.94439697 47.26112366 C-14.34515163 47.20190454 -21.40081984 45.74591792 -27.64590454 39.78009796 C-32.53500584 34.22868316 -33.95858294 27.48126632 -33.58325195 20.20922852 C-32.47781281 13.53053372 -29.22045178 8.18528234 -23.73119831 4.19332981 C-16.02862869 -0.09146627 -8.57003886 -0.07196406 0 0 Z " fill="#18415A" transform="translate(104.708251953125,-0.631103515625)"/>
<path d="M0 0 C1.24060684 -0.00852997 2.48121368 -0.01705994 3.75941467 -0.02584839 C5.12644971 -0.02514943 6.49348465 -0.0242264 7.86051941 -0.02310181 C9.30638984 -0.02908904 10.75225707 -0.03589504 12.19812012 -0.04345703 C16.11974086 -0.06110552 20.0412743 -0.06581195 23.96293092 -0.0670886 C26.41520419 -0.06851154 28.86745536 -0.07278385 31.31972313 -0.07808304 C39.88118775 -0.09658026 48.44259015 -0.10475413 57.0040741 -0.10317993 C64.97426283 -0.10197895 72.94418057 -0.12307336 80.91430074 -0.15466726 C87.76543821 -0.18085393 94.61648732 -0.19154621 101.46767443 -0.19026911 C105.55584569 -0.18976013 109.64377611 -0.19540749 113.73189735 -0.21662521 C117.57911573 -0.23604783 121.42586456 -0.23610499 125.2730999 -0.22159195 C126.68073847 -0.21950763 128.08840673 -0.22418228 129.49599457 -0.23631287 C138.36571737 -0.30776807 144.90924155 0.01776156 151.85734558 6.01351929 C152.52636902 6.85076538 152.52636902 6.85076538 153.20890808 7.70492554 C153.90113464 8.53830444 153.90113464 8.53830444 154.60734558 9.38851929 C157.57102446 13.92842228 158.12886724 17.81988837 158.14640808 23.20492554 C158.16316589 24.38957397 158.17992371 25.57422241 158.19718933 26.79476929 C157.59679655 32.53400785 154.88298407 37.21834954 150.83390808 41.26742554 C142.99991783 46.60850307 135.71732625 46.98576647 126.45500183 46.91439819 C125.03133532 46.92118726 123.6076776 46.93009758 122.18403625 46.94094849 C118.34501419 46.96359602 114.50666963 46.95496662 110.66763687 46.93905306 C106.63376912 46.92631792 102.59995606 46.93815517 98.56608582 46.94598389 C91.7942523 46.95505845 85.02269219 46.94315049 78.25090027 46.91928101 C70.44242788 46.89207374 62.63460843 46.90088948 54.82615185 46.92841303 C48.09967844 46.95116599 41.37340062 46.95427411 34.64690113 46.94121969 C30.63921228 46.93345899 26.63182947 46.93228954 22.62416077 46.94890213 C18.85468643 46.96343835 15.08604681 46.95316086 11.31666183 46.92443085 C9.28857798 46.91475949 7.26042281 46.92944181 5.2323761 46.94506836 C-3.41662097 46.84574675 -10.66037166 45.57903255 -17.10015869 39.41668129 C-21.48720135 34.44601234 -22.88719274 28.79366642 -23.16609192 22.26742554 C-22.59136266 14.93388023 -19.76535818 9.41369185 -14.22859192 4.51742554 C-9.46847617 1.02019764 -5.88290445 0.0183181 0 0 Z " fill="#18415A" transform="translate(49.16609191894531,107.73257446289063)"/>
<path d="M0 0 C0.90471542 -0.00671722 1.80943085 -0.01343445 2.74156189 -0.02035522 C5.72774778 -0.03932819 8.71370879 -0.04325918 11.69995117 -0.04541016 C13.78114412 -0.05183893 15.86233617 -0.05856735 17.94352722 -0.06558228 C22.30547175 -0.07755354 26.66733708 -0.08126328 31.02929688 -0.08007812 C36.60780665 -0.07987503 42.18580645 -0.10716837 47.76419544 -0.14162254 C52.06314915 -0.16390444 56.36198042 -0.16791525 60.66098595 -0.16685867 C62.71700484 -0.16921302 64.77302719 -0.17802712 66.82898903 -0.19352341 C69.71057033 -0.21320773 72.59105578 -0.20733545 75.47265625 -0.1953125 C76.73618423 -0.21217102 76.73618423 -0.21217102 78.02523804 -0.22937012 C84.67398535 -0.15918508 89.88312849 1.66091486 94.95385742 6.03662109 C95.62288086 6.87386719 95.62288086 6.87386719 96.30541992 7.72802734 C96.99764648 8.56140625 96.99764648 8.56140625 97.70385742 9.41162109 C100.6675363 13.95152409 101.22537908 17.84299018 101.24291992 23.22802734 C101.25967773 24.41267578 101.27643555 25.59732422 101.29370117 26.81787109 C100.69330839 32.55710966 97.97949591 37.24145135 93.93041992 41.29052734 C84.93580578 48.22956724 73.92514586 47.01779558 63.18041992 46.95458984 C61.1560029 46.9579635 59.13158787 46.96282068 57.10717773 46.96908569 C52.87748815 46.97643106 48.6483288 46.96582695 44.41870117 46.94238281 C39.0185525 46.91389672 33.61964662 46.93031324 28.21954346 46.96024513 C24.043119 46.97838132 19.86698535 46.97253114 15.69055176 46.95960617 C13.70039724 46.95628962 11.71021563 46.96029706 9.72009277 46.97200394 C-12.10510045 47.07223991 -12.10510045 47.07223991 -19.97875977 39.43984985 C-24.40611337 34.50179802 -25.79094073 28.81068803 -26.06958008 22.29052734 C-25.49485082 14.95698204 -22.66884634 9.43679365 -17.13208008 4.54052734 C-11.41606988 0.34100964 -6.87750103 -0.00734723 0 0 Z " fill="#18415A" transform="translate(79.069580078125,53.70947265625)"/>
<path d="M0 0 C1.0053479 -0.00478363 2.0106958 -0.00956726 3.04650879 -0.01449585 C5.15748676 -0.01787581 7.26851846 -0.00880797 9.37939453 0.01220703 C12.5861632 0.03899911 15.78943223 0.01239293 18.99609375 -0.01953125 C21.05990346 -0.01622682 23.12371101 -0.00981989 25.1875 0 C26.60512634 -0.01518173 26.60512634 -0.01518173 28.0513916 -0.03067017 C34.93355213 0.08879588 40.37742268 1.75068537 46.09375 5.6640625 C52.46134127 12.44320418 53.46199706 17.93852282 53.3671875 27.14453125 C52.85540881 33.73185413 50.47345645 37.64257277 45.65625 42.0390625 C41.55480029 45.44583511 37.47635095 46.90602025 32.1550293 46.95458984 C31.20021164 46.96734955 30.24539398 46.98010925 29.26164246 46.99325562 C28.24073013 46.99548126 27.21981781 46.99770691 26.16796875 47 C25.10641068 47.0066568 24.0448526 47.0133136 22.9511261 47.02017212 C20.70775074 47.03028442 18.46434539 47.03498958 16.22094727 47.03466797 C12.80368971 47.03903383 9.38773172 47.07534984 5.97070312 47.11328125 C3.78646273 47.11915128 1.60221623 47.12311942 -0.58203125 47.125 C-1.59687088 47.13937103 -2.61171051 47.15374207 -3.65730286 47.16854858 C-10.93656921 47.12209788 -16.3524773 45.73073508 -21.9296875 40.91796875 C-26.7680275 34.86305193 -29.31887906 29.27581765 -28.73046875 21.2734375 C-27.74883295 14.80852293 -25.61871009 10.21929781 -20.90625 5.6640625 C-14.12171497 1.14126428 -8.03346735 -0.08603251 0 0 Z " fill="#18415A" transform="translate(180.90625,161.3359375)"/>
<path d="M0 0 C0.95481766 -0.0127597 1.90963531 -0.02551941 2.89338684 -0.03866577 C3.91429916 -0.04089142 4.93521149 -0.04311707 5.98706055 -0.04541016 C7.04861862 -0.05206696 8.1101767 -0.05872375 9.2039032 -0.06558228 C11.44727856 -0.07569457 13.69068391 -0.08039974 15.93408203 -0.08007812 C19.35133958 -0.08444399 22.76729758 -0.12076 26.18432617 -0.15869141 C28.36856657 -0.16456143 30.55281307 -0.16852958 32.73706055 -0.17041016 C33.75190018 -0.18478119 34.76673981 -0.19915222 35.81233215 -0.21395874 C43.09159851 -0.16750804 48.50750659 1.22385476 54.0847168 6.03662109 C54.75374023 6.87386719 54.75374023 6.87386719 55.4362793 7.72802734 C56.12850586 8.56140625 56.12850586 8.56140625 56.8347168 9.41162109 C59.79839567 13.95152409 60.35623846 17.84299018 60.3737793 23.22802734 C60.39053711 24.41267578 60.40729492 25.59732422 60.42456055 26.81787109 C59.82416776 32.55710966 57.11035529 37.24145135 53.0612793 41.29052734 C46.16774068 45.70741521 40.24969796 47.04127777 32.1550293 46.95458984 C31.1496814 46.95937347 30.1443335 46.9641571 29.10852051 46.96908569 C26.99754253 46.97246565 24.88651084 46.96339781 22.77563477 46.94238281 C19.5688661 46.91559073 16.36559707 46.94219691 13.15893555 46.97412109 C11.09512584 46.97081666 9.03131829 46.96440973 6.9675293 46.95458984 C6.02244507 46.964711 5.07736084 46.97483215 4.1036377 46.98526001 C-2.77852283 46.86579396 -8.22239338 45.20390447 -13.9387207 41.29052734 C-20.30631197 34.51138566 -21.30696776 29.01606702 -21.2121582 19.81005859 C-20.70037951 13.22273571 -18.31842716 9.31201708 -13.5012207 4.91552734 C-9.39977099 1.50875473 -5.32132165 0.04856959 0 0 Z " fill="#18415A" transform="translate(20.938720703125,161.70947265625)"/>
<path d="M0 0 C0.74128143 0.22486084 1.48256287 0.44972168 2.24630737 0.68139648 C4.55007042 1.41142386 6.83585495 2.18272754 9.12109375 2.96875 C9.94706558 3.24972534 10.77303741 3.53070068 11.6240387 3.82019043 C13.35166203 4.40946143 15.07845785 5.00116375 16.80444336 5.59521484 C19.45225672 6.50507078 22.103823 7.40331943 24.75585938 8.30078125 C26.44034072 8.87691301 28.12459407 9.45371189 29.80859375 10.03125 C30.6012413 10.29901245 31.39388885 10.5667749 32.21055603 10.84265137 C37.77042137 12.77042137 37.77042137 12.77042137 40 15 C40.5412844 20.68348624 40.5412844 20.68348624 40 23 C36.32732881 26.59129096 31.39099545 27.8001858 26.6328125 29.390625 C25.26429642 29.85393219 25.26429642 29.85393219 23.86813354 30.32659912 C21.94123098 30.97586517 20.01298047 31.62114256 18.08349609 32.26269531 C15.13751199 33.24582452 12.1997113 34.25109122 9.26171875 35.2578125 C7.38587505 35.88678541 5.50958671 36.51443408 3.6328125 37.140625 C2.7576297 37.44260803 1.8824469 37.74459106 0.98074341 38.0557251 C-3.68420864 39.58166044 -7.14741121 40.54584113 -12 39 C-14.92750006 36.07249994 -14.34366647 32.96163574 -14.37109375 29.03515625 C-14.38012222 28.24604355 -14.3891507 27.45693085 -14.39845276 26.64390564 C-14.41296998 24.97366133 -14.42184565 23.30335996 -14.42553711 21.63305664 C-14.43744014 19.07536236 -14.48661107 16.52007574 -14.53710938 13.96289062 C-14.5465727 12.34115763 -14.55380817 10.71940979 -14.55859375 9.09765625 C-14.57812607 8.33195816 -14.59765839 7.56626007 -14.61778259 6.77735901 C-14.58827542 3.31059647 -14.42104356 1.45491883 -12.02758789 -1.13110352 C-7.59464539 -2.40332691 -4.33147339 -1.32852984 0 0 Z " fill="#18415A" transform="translate(383,166)"/>
</svg>
